<?xml version="1.0" encoding="UTF-8"?>
<svg xmlns="http://www.w3.org/2000/svg" viewBox="332.1667029696807 368.3798678835863 130.63596806006467 83.973376584361"
  width="130.63596806006467" height="83.973376584361">
  <path
    d="M 335.36 450.35 L 338.24 435.00 L 342.73 422.18 L 348.53 411.85 L 355.28 403.91 L 362.62 398.19 L 370.22 394.44 L 377.83 392.35 L 385.29 391.63 L 392.45 392.01 L 399.20 393.22 L 405.38 395.05 L 410.84 397.27 L 415.39 399.63 L 418.75 401.84 L 420.55 403.42 L 420.20 403.24 L 406.63 415.06 L 460.80 425.47 L 457.89 370.38 L 444.32 382.21 L 438.51 377.35 L 432.18 374.26 L 425.09 372.14 L 417.25 370.85 L 408.79 370.43 L 399.90 370.98 L 390.80 372.60 L 381.73 375.42 L 372.96 379.52 L 364.73 384.97 L 357.25 391.80 L 350.67 400.05 L 345.04 409.82 L 340.38 421.26 L 336.73 434.63 L 334.17 450.21 Z"
    fill="#50beb7" stroke="none" />
</svg>